<svg xmlns="http://www.w3.org/2000/svg" width="760" height="320" viewBox="0 0 760 320">
<rect width="100%" height="100%" fill="#f8fafc" />
<text x="380.0" y="30" text-anchor="middle" font-size="18" font-weight="600">Attack Success Rate by Setting</text>
<line x1="70" y1="250" x2="690" y2="250" stroke="#334155" stroke-width="1.5" /><line x1="70" y1="70" x2="70" y2="250" stroke="#334155" stroke-width="1.5" />
<line x1="66" y1="250.0" x2="70" y2="250.0" stroke="#334155" /><text x="60" y="254.0" text-anchor="end" font-size="11">0.0</text><line x1="66" y1="214.0" x2="70" y2="214.0" stroke="#334155" /><text x="60" y="218.0" text-anchor="end" font-size="11">0.2</text><line x1="66" y1="178.0" x2="70" y2="178.0" stroke="#334155" /><text x="60" y="182.0" text-anchor="end" font-size="11">0.4</text><line x1="66" y1="142.0" x2="70" y2="142.0" stroke="#334155" /><text x="60" y="146.0" text-anchor="end" font-size="11">0.6</text><line x1="66" y1="106.0" x2="70" y2="106.0" stroke="#334155" /><text x="60" y="110.0" text-anchor="end" font-size="11">0.8</text><line x1="66" y1="70.0" x2="70" y2="70.0" stroke="#334155" /><text x="60" y="74.0" text-anchor="end" font-size="11">1.0</text>
<rect x="82.0" y="70.0" width="80.6" height="180.0" fill="#0f766e" /><text x="122.3" y="62.0" text-anchor="middle" font-size="12">1.00</text><text x="122.3" y="268.0" text-anchor="middle" font-size="11">baseline_insecure</text><rect x="206.0" y="160.0" width="80.6" height="90.0" fill="#0f766e" /><text x="246.3" y="152.0" text-anchor="middle" font-size="12">0.50</text><text x="246.3" y="268.0" text-anchor="middle" font-size="11">prompt_hardened</text><rect x="330.0" y="160.0" width="80.6" height="90.0" fill="#0f766e" /><text x="370.3" y="152.0" text-anchor="middle" font-size="12">0.50</text><text x="370.3" y="268.0" text-anchor="middle" font-size="11">sanitized_context</text><rect x="454.0" y="220.0" width="80.6" height="30.0" fill="#0f766e" /><text x="494.3" y="212.0" text-anchor="middle" font-size="12">0.17</text><text x="494.3" y="268.0" text-anchor="middle" font-size="11">two_stage_answering</text><rect x="578.0" y="250.0" width="80.6" height="0.0" fill="#0f766e" /><text x="618.3" y="242.0" text-anchor="middle" font-size="12">0.00</text><text x="618.3" y="268.0" text-anchor="middle" font-size="11">full_guard</text>
</svg>
